<?xml version="1.0" encoding="UTF-8" ?>
<svg version="1.1" width="128" height="128" xmlns="http://www.w3.org/2000/svg" shape-rendering="crispEdges">
<rect x="0" y="16" width="9" height="1" fill="#000000" />
<rect x="87" y="16" width="9" height="1" fill="#000000" />
<rect x="0" y="17" width="1" height="3" fill="#000000" />
<rect x="1" y="17" width="7" height="2" fill="#D32929" />
<rect x="8" y="17" width="2" height="1" fill="#000000" />
<rect x="86" y="17" width="2" height="1" fill="#000000" />
<rect x="88" y="17" width="7" height="2" fill="#D32929" />
<rect x="95" y="17" width="1" height="3" fill="#000000" />
<rect x="8" y="18" width="1" height="15" fill="#D32929" />
<rect x="9" y="18" width="1" height="2" fill="#000000" />
<rect x="86" y="18" width="1" height="2" fill="#000000" />
<rect x="87" y="18" width="1" height="6" fill="#D32929" />
<rect x="1" y="19" width="1" height="3" fill="#000000" />
<rect x="2" y="19" width="6" height="2" fill="#D32929" />
<rect x="10" y="19" width="1" height="3" fill="#000000" />
<rect x="85" y="19" width="1" height="3" fill="#000000" />
<rect x="88" y="19" width="6" height="2" fill="#D32929" />
<rect x="94" y="19" width="1" height="3" fill="#000000" />
<rect x="9" y="20" width="1" height="15" fill="#D32929" />
<rect x="86" y="20" width="1" height="4" fill="#D32929" />
<rect x="2" y="21" width="1" height="3" fill="#000000" />
<rect x="3" y="21" width="5" height="2" fill="#D32929" />
<rect x="11" y="21" width="1" height="3" fill="#000000" />
<rect x="84" y="21" width="1" height="4" fill="#000000" />
<rect x="88" y="21" width="5" height="2" fill="#D32929" />
<rect x="93" y="21" width="1" height="4" fill="#000000" />
<rect x="10" y="22" width="1" height="15" fill="#D32929" />
<rect x="85" y="22" width="1" height="2" fill="#D32929" />
<rect x="3" y="23" width="1" height="3" fill="#000000" />
<rect x="4" y="23" width="4" height="2" fill="#D32929" />
<rect x="12" y="23" width="1" height="3" fill="#000000" />
<rect x="83" y="23" width="1" height="2" fill="#000000" />
<rect x="88" y="23" width="4" height="1" fill="#D32929" />
<rect x="92" y="23" width="1" height="2" fill="#000000" />
<rect x="119" y="23" width="5" height="1" fill="#000000" />
<rect x="11" y="24" width="1" height="15" fill="#D32929" />
<rect x="62" y="24" width="21" height="1" fill="#000000" />
<rect x="85" y="24" width="7" height="1" fill="#000000" />
<rect x="94" y="24" width="25" height="1" fill="#000000" />
<rect x="119" y="24" width="5" height="1" fill="#6ABE30" />
<rect x="124" y="24" width="1" height="1" fill="#000000" />
<rect x="4" y="25" width="1" height="3" fill="#000000" />
<rect x="5" y="25" width="3" height="2" fill="#D32929" />
<rect x="13" y="25" width="1" height="3" fill="#000000" />
<rect x="61" y="25" width="2" height="1" fill="#000000" />
<rect x="63" y="25" width="5" height="4" fill="#6ABE30" />
<rect x="68" y="25" width="1" height="1" fill="#4B692F" />
<rect x="69" y="25" width="7" height="4" fill="#6ABE30" />
<rect x="76" y="25" width="1" height="1" fill="#4B692F" />
<rect x="77" y="25" width="7" height="4" fill="#6ABE30" />
<rect x="84" y="25" width="1" height="1" fill="#4B692F" />
<rect x="85" y="25" width="7" height="4" fill="#6ABE30" />
<rect x="92" y="25" width="1" height="1" fill="#4B692F" />
<rect x="93" y="25" width="7" height="4" fill="#6ABE30" />
<rect x="100" y="25" width="1" height="1" fill="#4B692F" />
<rect x="101" y="25" width="7" height="4" fill="#6ABE30" />
<rect x="108" y="25" width="1" height="1" fill="#4B692F" />
<rect x="109" y="25" width="7" height="4" fill="#6ABE30" />
<rect x="116" y="25" width="1" height="1" fill="#4B692F" />
<rect x="117" y="25" width="5" height="4" fill="#6ABE30" />
<rect x="122" y="25" width="1" height="1" fill="#000000" />
<rect x="123" y="25" width="2" height="3" fill="#6ABE30" />
<rect x="125" y="25" width="1" height="3" fill="#000000" />
<rect x="12" y="26" width="1" height="15" fill="#D32929" />
<rect x="60" y="26" width="2" height="1" fill="#000000" />
<rect x="62" y="26" width="1" height="37" fill="#6ABE30" />
<rect x="68" y="26" width="1" height="2" fill="#6ABE30" />
<rect x="76" y="26" width="1" height="2" fill="#6ABE30" />
<rect x="84" y="26" width="1" height="2" fill="#6ABE30" />
<rect x="92" y="26" width="1" height="2" fill="#6ABE30" />
<rect x="100" y="26" width="1" height="2" fill="#6ABE30" />
<rect x="108" y="26" width="1" height="2" fill="#6ABE30" />
<rect x="116" y="26" width="1" height="2" fill="#6ABE30" />
<rect x="122" y="26" width="1" height="2" fill="#6ABE30" />
<rect x="5" y="27" width="1" height="3" fill="#000000" />
<rect x="6" y="27" width="2" height="2" fill="#D32929" />
<rect x="14" y="27" width="1" height="3" fill="#000000" />
<rect x="60" y="27" width="1" height="36" fill="#000000" />
<rect x="61" y="27" width="1" height="5" fill="#6ABE30" />
<rect x="127" y="27" width="1" height="1" fill="#AC3232" />
<rect x="13" y="28" width="1" height="15" fill="#D32929" />
<rect x="68" y="28" width="1" height="1" fill="#4B692F" />
<rect x="76" y="28" width="1" height="1" fill="#4B692F" />
<rect x="84" y="28" width="1" height="1" fill="#4B692F" />
<rect x="92" y="28" width="1" height="1" fill="#4B692F" />
<rect x="100" y="28" width="1" height="1" fill="#4B692F" />
<rect x="108" y="28" width="1" height="1" fill="#4B692F" />
<rect x="116" y="28" width="1" height="1" fill="#4B692F" />
<rect x="122" y="28" width="5" height="1" fill="#AC3232" />
<rect x="6" y="29" width="1" height="3" fill="#000000" />
<rect x="7" y="29" width="1" height="2" fill="#D32929" />
<rect x="15" y="29" width="1" height="3" fill="#000000" />
<rect x="63" y="29" width="4" height="1" fill="#6ABE30" />
<rect x="67" y="29" width="52" height="1" fill="#000000" />
<rect x="119" y="29" width="5" height="1" fill="#6ABE30" />
<rect x="124" y="29" width="1" height="1" fill="#000000" />
<rect x="127" y="29" width="1" height="1" fill="#AC3232" />
<rect x="14" y="30" width="1" height="15" fill="#D32929" />
<rect x="63" y="30" width="3" height="1" fill="#6ABE30" />
<rect x="66" y="30" width="2" height="1" fill="#000000" />
<rect x="80" y="30" width="1" height="2" fill="#000000" />
<rect x="81" y="30" width="8" height="1" fill="#D32929" />
<rect x="89" y="30" width="1" height="2" fill="#000000" />
<rect x="119" y="30" width="5" height="1" fill="#000000" />
<rect x="7" y="31" width="1" height="3" fill="#000000" />
<rect x="16" y="31" width="1" height="3" fill="#000000" />
<rect x="63" y="31" width="2" height="1" fill="#6ABE30" />
<rect x="65" y="31" width="2" height="1" fill="#000000" />
<rect x="79" y="31" width="1" height="3" fill="#000000" />
<rect x="81" y="31" width="7" height="2" fill="#D32929" />
<rect x="88" y="31" width="1" height="3" fill="#000000" />
<rect x="15" y="32" width="1" height="15" fill="#D32929" />
<rect x="61" y="32" width="1" height="1" fill="#4B692F" />
<rect x="63" y="32" width="1" height="32" fill="#6ABE30" />
<rect x="64" y="32" width="1" height="1" fill="#4B692F" />
<rect x="65" y="32" width="1" height="26" fill="#000000" />
<rect x="80" y="32" width="1" height="15" fill="#D32929" />
<rect x="8" y="33" width="1" height="3" fill="#000000" />
<rect x="17" y="33" width="1" height="3" fill="#000000" />
<rect x="61" y="33" width="1" height="7" fill="#6ABE30" />
<rect x="64" y="33" width="1" height="7" fill="#6ABE30" />
<rect x="78" y="33" width="1" height="3" fill="#000000" />
<rect x="81" y="33" width="6" height="2" fill="#D32929" />
<rect x="87" y="33" width="1" height="3" fill="#000000" />
<rect x="16" y="34" width="1" height="15" fill="#D32929" />
<rect x="79" y="34" width="1" height="15" fill="#D32929" />
<rect x="9" y="35" width="1" height="3" fill="#000000" />
<rect x="18" y="35" width="1" height="3" fill="#000000" />
<rect x="77" y="35" width="1" height="3" fill="#000000" />
<rect x="81" y="35" width="5" height="2" fill="#D32929" />
<rect x="86" y="35" width="1" height="3" fill="#000000" />
<rect x="17" y="36" width="1" height="15" fill="#D32929" />
<rect x="78" y="36" width="1" height="15" fill="#D32929" />
<rect x="10" y="37" width="1" height="3" fill="#000000" />
<rect x="19" y="37" width="1" height="3" fill="#000000" />
<rect x="76" y="37" width="1" height="3" fill="#000000" />
<rect x="81" y="37" width="4" height="2" fill="#D32929" />
<rect x="85" y="37" width="1" height="3" fill="#000000" />
<rect x="18" y="38" width="1" height="15" fill="#D32929" />
<rect x="77" y="38" width="1" height="15" fill="#D32929" />
<rect x="11" y="39" width="1" height="3" fill="#000000" />
<rect x="20" y="39" width="1" height="3" fill="#000000" />
<rect x="75" y="39" width="1" height="3" fill="#000000" />
<rect x="81" y="39" width="3" height="2" fill="#D32929" />
<rect x="84" y="39" width="1" height="3" fill="#000000" />
<rect x="19" y="40" width="1" height="15" fill="#D32929" />
<rect x="61" y="40" width="1" height="1" fill="#4B692F" />
<rect x="64" y="40" width="1" height="1" fill="#4B692F" />
<rect x="76" y="40" width="1" height="15" fill="#D32929" />
<rect x="12" y="41" width="1" height="3" fill="#000000" />
<rect x="21" y="41" width="1" height="3" fill="#000000" />
<rect x="61" y="41" width="1" height="7" fill="#6ABE30" />
<rect x="64" y="41" width="1" height="7" fill="#6ABE30" />
<rect x="74" y="41" width="1" height="3" fill="#000000" />
<rect x="81" y="41" width="2" height="2" fill="#D32929" />
<rect x="83" y="41" width="1" height="3" fill="#000000" />
<rect x="20" y="42" width="1" height="15" fill="#D32929" />
<rect x="75" y="42" width="1" height="15" fill="#D32929" />
<rect x="13" y="43" width="1" height="3" fill="#000000" />
<rect x="22" y="43" width="1" height="3" fill="#000000" />
<rect x="73" y="43" width="1" height="3" fill="#000000" />
<rect x="81" y="43" width="1" height="2" fill="#D32929" />
<rect x="82" y="43" width="1" height="3" fill="#000000" />
<rect x="21" y="44" width="1" height="15" fill="#D32929" />
<rect x="74" y="44" width="1" height="15" fill="#D32929" />
<rect x="14" y="45" width="1" height="3" fill="#000000" />
<rect x="23" y="45" width="1" height="3" fill="#000000" />
<rect x="72" y="45" width="1" height="3" fill="#000000" />
<rect x="81" y="45" width="1" height="3" fill="#000000" />
<rect x="22" y="46" width="1" height="15" fill="#D32929" />
<rect x="73" y="46" width="1" height="13" fill="#D32929" />
<rect x="15" y="47" width="1" height="3" fill="#000000" />
<rect x="24" y="47" width="1" height="3" fill="#000000" />
<rect x="71" y="47" width="1" height="3" fill="#000000" />
<rect x="80" y="47" width="1" height="3" fill="#000000" />
<rect x="23" y="48" width="1" height="15" fill="#D32929" />
<rect x="61" y="48" width="1" height="1" fill="#4B692F" />
<rect x="64" y="48" width="1" height="1" fill="#4B692F" />
<rect x="72" y="48" width="1" height="11" fill="#D32929" />
<rect x="16" y="49" width="1" height="3" fill="#000000" />
<rect x="25" y="49" width="1" height="3" fill="#000000" />
<rect x="61" y="49" width="1" height="7" fill="#6ABE30" />
<rect x="64" y="49" width="1" height="7" fill="#6ABE30" />
<rect x="70" y="49" width="1" height="3" fill="#000000" />
<rect x="79" y="49" width="1" height="3" fill="#000000" />
<rect x="24" y="50" width="1" height="15" fill="#D32929" />
<rect x="71" y="50" width="1" height="9" fill="#D32929" />
<rect x="17" y="51" width="1" height="3" fill="#000000" />
<rect x="26" y="51" width="1" height="3" fill="#000000" />
<rect x="69" y="51" width="1" height="3" fill="#000000" />
<rect x="78" y="51" width="1" height="3" fill="#000000" />
<rect x="25" y="52" width="1" height="15" fill="#D32929" />
<rect x="70" y="52" width="1" height="7" fill="#D32929" />
<rect x="18" y="53" width="1" height="3" fill="#000000" />
<rect x="27" y="53" width="1" height="3" fill="#000000" />
<rect x="68" y="53" width="1" height="3" fill="#000000" />
<rect x="77" y="53" width="1" height="3" fill="#000000" />
<rect x="26" y="54" width="1" height="15" fill="#D32929" />
<rect x="69" y="54" width="1" height="5" fill="#D32929" />
<rect x="19" y="55" width="1" height="3" fill="#000000" />
<rect x="28" y="55" width="1" height="3" fill="#000000" />
<rect x="67" y="55" width="1" height="5" fill="#000000" />
<rect x="76" y="55" width="1" height="3" fill="#000000" />
<rect x="27" y="56" width="1" height="15" fill="#D32929" />
<rect x="61" y="56" width="1" height="1" fill="#4B692F" />
<rect x="64" y="56" width="1" height="1" fill="#4B692F" />
<rect x="68" y="56" width="1" height="3" fill="#D32929" />
<rect x="20" y="57" width="1" height="3" fill="#000000" />
<rect x="29" y="57" width="1" height="3" fill="#000000" />
<rect x="61" y="57" width="1" height="5" fill="#6ABE30" />
<rect x="64" y="57" width="1" height="7" fill="#6ABE30" />
<rect x="66" y="57" width="1" height="2" fill="#000000" />
<rect x="75" y="57" width="1" height="3" fill="#000000" />
<rect x="28" y="58" width="1" height="15" fill="#D32929" />
<rect x="65" y="58" width="1" height="6" fill="#6ABE30" />
<rect x="21" y="59" width="1" height="3" fill="#000000" />
<rect x="30" y="59" width="1" height="3" fill="#000000" />
<rect x="66" y="59" width="1" height="5" fill="#6ABE30" />
<rect x="68" y="59" width="7" height="1" fill="#000000" />
<rect x="76" y="59" width="48" height="1" fill="#000000" />
<rect x="29" y="60" width="1" height="15" fill="#D32929" />
<rect x="67" y="60" width="2" height="4" fill="#6ABE30" />
<rect x="69" y="60" width="1" height="1" fill="#4B692F" />
<rect x="70" y="60" width="7" height="4" fill="#6ABE30" />
<rect x="77" y="60" width="1" height="1" fill="#4B692F" />
<rect x="78" y="60" width="7" height="4" fill="#6ABE30" />
<rect x="85" y="60" width="1" height="1" fill="#4B692F" />
<rect x="86" y="60" width="7" height="4" fill="#6ABE30" />
<rect x="93" y="60" width="1" height="1" fill="#4B692F" />
<rect x="94" y="60" width="7" height="4" fill="#6ABE30" />
<rect x="101" y="60" width="1" height="1" fill="#4B692F" />
<rect x="102" y="60" width="7" height="4" fill="#6ABE30" />
<rect x="109" y="60" width="1" height="1" fill="#4B692F" />
<rect x="110" y="60" width="7" height="4" fill="#6ABE30" />
<rect x="117" y="60" width="1" height="1" fill="#4B692F" />
<rect x="118" y="60" width="5" height="4" fill="#6ABE30" />
<rect x="123" y="60" width="2" height="1" fill="#000000" />
<rect x="22" y="61" width="1" height="3" fill="#000000" />
<rect x="31" y="61" width="1" height="3" fill="#000000" />
<rect x="69" y="61" width="1" height="2" fill="#6ABE30" />
<rect x="77" y="61" width="1" height="2" fill="#6ABE30" />
<rect x="85" y="61" width="1" height="2" fill="#6ABE30" />
<rect x="93" y="61" width="1" height="2" fill="#6ABE30" />
<rect x="101" y="61" width="1" height="2" fill="#6ABE30" />
<rect x="109" y="61" width="1" height="2" fill="#6ABE30" />
<rect x="117" y="61" width="1" height="2" fill="#6ABE30" />
<rect x="123" y="61" width="1" height="37" fill="#6ABE30" />
<rect x="124" y="61" width="2" height="1" fill="#000000" />
<rect x="30" y="62" width="1" height="15" fill="#D32929" />
<rect x="61" y="62" width="1" height="2" fill="#000000" />
<rect x="124" y="62" width="1" height="5" fill="#6ABE30" />
<rect x="125" y="62" width="1" height="36" fill="#000000" />
<rect x="23" y="63" width="1" height="3" fill="#000000" />
<rect x="32" y="63" width="1" height="3" fill="#000000" />
<rect x="62" y="63" width="1" height="5" fill="#000000" />
<rect x="69" y="63" width="1" height="1" fill="#4B692F" />
<rect x="77" y="63" width="1" height="1" fill="#4B692F" />
<rect x="85" y="63" width="1" height="1" fill="#4B692F" />
<rect x="93" y="63" width="1" height="1" fill="#4B692F" />
<rect x="101" y="63" width="1" height="1" fill="#4B692F" />
<rect x="109" y="63" width="1" height="1" fill="#4B692F" />
<rect x="117" y="63" width="1" height="1" fill="#4B692F" />
<rect x="31" y="64" width="1" height="15" fill="#D32929" />
<rect x="63" y="64" width="56" height="1" fill="#000000" />
<rect x="119" y="64" width="4" height="1" fill="#6ABE30" />
<rect x="24" y="65" width="1" height="3" fill="#000000" />
<rect x="33" y="65" width="1" height="3" fill="#000000" />
<rect x="63" y="65" width="1" height="1" fill="#000000" />
<rect x="64" y="65" width="7" height="2" fill="#D32929" />
<rect x="71" y="65" width="2" height="1" fill="#000000" />
<rect x="118" y="65" width="2" height="1" fill="#000000" />
<rect x="120" y="65" width="3" height="1" fill="#6ABE30" />
<rect x="32" y="66" width="1" height="15" fill="#D32929" />
<rect x="63" y="66" width="1" height="15" fill="#D32929" />
<rect x="71" y="66" width="1" height="2" fill="#000000" />
<rect x="119" y="66" width="2" height="1" fill="#000000" />
<rect x="121" y="66" width="2" height="1" fill="#6ABE30" />
<rect x="25" y="67" width="1" height="3" fill="#000000" />
<rect x="34" y="67" width="1" height="3" fill="#000000" />
<rect x="61" y="67" width="1" height="3" fill="#000000" />
<rect x="64" y="67" width="6" height="2" fill="#D32929" />
<rect x="70" y="67" width="1" height="3" fill="#000000" />
<rect x="120" y="67" width="1" height="26" fill="#000000" />
<rect x="121" y="67" width="1" height="1" fill="#4B692F" />
<rect x="122" y="67" width="1" height="32" fill="#6ABE30" />
<rect x="124" y="67" width="1" height="1" fill="#4B692F" />
<rect x="33" y="68" width="1" height="15" fill="#D32929" />
<rect x="62" y="68" width="1" height="15" fill="#D32929" />
<rect x="121" y="68" width="1" height="7" fill="#6ABE30" />
<rect x="124" y="68" width="1" height="7" fill="#6ABE30" />
<rect x="26" y="69" width="1" height="3" fill="#000000" />
<rect x="35" y="69" width="1" height="3" fill="#000000" />
<rect x="60" y="69" width="1" height="3" fill="#000000" />
<rect x="64" y="69" width="5" height="2" fill="#D32929" />
<rect x="69" y="69" width="1" height="3" fill="#000000" />
<rect x="34" y="70" width="1" height="15" fill="#D32929" />
<rect x="61" y="70" width="1" height="15" fill="#D32929" />
<rect x="27" y="71" width="1" height="3" fill="#000000" />
<rect x="36" y="71" width="1" height="3" fill="#000000" />
<rect x="59" y="71" width="1" height="3" fill="#000000" />
<rect x="64" y="71" width="4" height="2" fill="#D32929" />
<rect x="68" y="71" width="1" height="3" fill="#000000" />
<rect x="35" y="72" width="1" height="15" fill="#D32929" />
<rect x="60" y="72" width="1" height="15" fill="#D32929" />
<rect x="28" y="73" width="1" height="3" fill="#000000" />
<rect x="37" y="73" width="1" height="3" fill="#000000" />
<rect x="58" y="73" width="1" height="3" fill="#000000" />
<rect x="64" y="73" width="3" height="2" fill="#D32929" />
<rect x="67" y="73" width="1" height="3" fill="#000000" />
<rect x="36" y="74" width="1" height="15" fill="#D32929" />
<rect x="59" y="74" width="1" height="15" fill="#D32929" />
<rect x="29" y="75" width="1" height="3" fill="#000000" />
<rect x="38" y="75" width="1" height="3" fill="#000000" />
<rect x="57" y="75" width="1" height="3" fill="#000000" />
<rect x="64" y="75" width="2" height="2" fill="#D32929" />
<rect x="66" y="75" width="1" height="3" fill="#000000" />
<rect x="121" y="75" width="1" height="1" fill="#4B692F" />
<rect x="124" y="75" width="1" height="1" fill="#4B692F" />
<rect x="37" y="76" width="1" height="15" fill="#D32929" />
<rect x="58" y="76" width="1" height="15" fill="#D32929" />
<rect x="121" y="76" width="1" height="7" fill="#6ABE30" />
<rect x="124" y="76" width="1" height="7" fill="#6ABE30" />
<rect x="30" y="77" width="1" height="3" fill="#000000" />
<rect x="39" y="77" width="1" height="3" fill="#000000" />
<rect x="56" y="77" width="1" height="3" fill="#000000" />
<rect x="64" y="77" width="1" height="2" fill="#D32929" />
<rect x="65" y="77" width="1" height="3" fill="#000000" />
<rect x="38" y="78" width="1" height="15" fill="#D32929" />
<rect x="57" y="78" width="1" height="15" fill="#D32929" />
<rect x="31" y="79" width="1" height="3" fill="#000000" />
<rect x="40" y="79" width="1" height="3" fill="#000000" />
<rect x="55" y="79" width="1" height="3" fill="#000000" />
<rect x="64" y="79" width="1" height="3" fill="#000000" />
<rect x="39" y="80" width="1" height="15" fill="#D32929" />
<rect x="56" y="80" width="1" height="15" fill="#D32929" />
<rect x="32" y="81" width="1" height="3" fill="#000000" />
<rect x="41" y="81" width="1" height="3" fill="#000000" />
<rect x="54" y="81" width="1" height="3" fill="#000000" />
<rect x="63" y="81" width="1" height="3" fill="#000000" />
<rect x="40" y="82" width="1" height="15" fill="#D32929" />
<rect x="55" y="82" width="1" height="15" fill="#D32929" />
<rect x="33" y="83" width="1" height="3" fill="#000000" />
<rect x="42" y="83" width="1" height="3" fill="#000000" />
<rect x="53" y="83" width="1" height="3" fill="#000000" />
<rect x="62" y="83" width="1" height="3" fill="#000000" />
<rect x="121" y="83" width="1" height="1" fill="#4B692F" />
<rect x="124" y="83" width="1" height="1" fill="#4B692F" />
<rect x="41" y="84" width="1" height="15" fill="#D32929" />
<rect x="54" y="84" width="1" height="15" fill="#D32929" />
<rect x="121" y="84" width="1" height="7" fill="#6ABE30" />
<rect x="124" y="84" width="1" height="7" fill="#6ABE30" />
<rect x="34" y="85" width="1" height="3" fill="#000000" />
<rect x="43" y="85" width="1" height="3" fill="#000000" />
<rect x="52" y="85" width="1" height="3" fill="#000000" />
<rect x="61" y="85" width="1" height="3" fill="#000000" />
<rect x="42" y="86" width="1" height="15" fill="#D32929" />
<rect x="53" y="86" width="1" height="15" fill="#D32929" />
<rect x="35" y="87" width="1" height="3" fill="#000000" />
<rect x="44" y="87" width="1" height="3" fill="#000000" />
<rect x="51" y="87" width="1" height="3" fill="#000000" />
<rect x="60" y="87" width="1" height="3" fill="#000000" />
<rect x="43" y="88" width="1" height="15" fill="#D32929" />
<rect x="52" y="88" width="1" height="15" fill="#D32929" />
<rect x="36" y="89" width="1" height="3" fill="#000000" />
<rect x="45" y="89" width="1" height="3" fill="#000000" />
<rect x="50" y="89" width="1" height="3" fill="#000000" />
<rect x="59" y="89" width="1" height="3" fill="#000000" />
<rect x="44" y="90" width="1" height="15" fill="#D32929" />
<rect x="51" y="90" width="1" height="15" fill="#D32929" />
<rect x="37" y="91" width="1" height="3" fill="#000000" />
<rect x="46" y="91" width="1" height="3" fill="#000000" />
<rect x="49" y="91" width="1" height="3" fill="#000000" />
<rect x="58" y="91" width="1" height="3" fill="#000000" />
<rect x="121" y="91" width="1" height="1" fill="#4B692F" />
<rect x="124" y="91" width="1" height="1" fill="#4B692F" />
<rect x="45" y="92" width="1" height="13" fill="#D32929" />
<rect x="50" y="92" width="1" height="13" fill="#D32929" />
<rect x="119" y="92" width="1" height="2" fill="#000000" />
<rect x="121" y="92" width="1" height="7" fill="#6ABE30" />
<rect x="124" y="92" width="1" height="5" fill="#6ABE30" />
<rect x="38" y="93" width="1" height="3" fill="#000000" />
<rect x="47" y="93" width="2" height="3" fill="#000000" />
<rect x="57" y="93" width="1" height="3" fill="#000000" />
<rect x="118" y="93" width="1" height="2" fill="#000000" />
<rect x="120" y="93" width="1" height="6" fill="#6ABE30" />
<rect x="46" y="94" width="1" height="11" fill="#D32929" />
<rect x="49" y="94" width="1" height="11" fill="#D32929" />
<rect x="63" y="94" width="55" height="1" fill="#000000" />
<rect x="119" y="94" width="1" height="5" fill="#6ABE30" />
<rect x="39" y="95" width="1" height="3" fill="#000000" />
<rect x="56" y="95" width="1" height="3" fill="#000000" />
<rect x="60" y="95" width="3" height="1" fill="#000000" />
<rect x="63" y="95" width="6" height="4" fill="#6ABE30" />
<rect x="69" y="95" width="1" height="1" fill="#4B692F" />
<rect x="70" y="95" width="7" height="4" fill="#6ABE30" />
<rect x="77" y="95" width="1" height="1" fill="#4B692F" />
<rect x="78" y="95" width="7" height="4" fill="#6ABE30" />
<rect x="85" y="95" width="1" height="1" fill="#4B692F" />
<rect x="86" y="95" width="7" height="4" fill="#6ABE30" />
<rect x="93" y="95" width="1" height="1" fill="#4B692F" />
<rect x="94" y="95" width="7" height="4" fill="#6ABE30" />
<rect x="101" y="95" width="1" height="1" fill="#4B692F" />
<rect x="102" y="95" width="7" height="4" fill="#6ABE30" />
<rect x="109" y="95" width="1" height="1" fill="#4B692F" />
<rect x="110" y="95" width="7" height="4" fill="#6ABE30" />
<rect x="117" y="95" width="1" height="1" fill="#4B692F" />
<rect x="118" y="95" width="1" height="4" fill="#6ABE30" />
<rect x="47" y="96" width="2" height="9" fill="#D32929" />
<rect x="58" y="96" width="2" height="2" fill="#000000" />
<rect x="60" y="96" width="3" height="2" fill="#6ABE30" />
<rect x="69" y="96" width="1" height="2" fill="#6ABE30" />
<rect x="77" y="96" width="1" height="2" fill="#6ABE30" />
<rect x="85" y="96" width="1" height="2" fill="#6ABE30" />
<rect x="93" y="96" width="1" height="2" fill="#6ABE30" />
<rect x="101" y="96" width="1" height="2" fill="#6ABE30" />
<rect x="109" y="96" width="1" height="2" fill="#6ABE30" />
<rect x="117" y="96" width="1" height="2" fill="#6ABE30" />
<rect x="40" y="97" width="1" height="3" fill="#000000" />
<rect x="55" y="97" width="1" height="3" fill="#000000" />
<rect x="124" y="97" width="1" height="2" fill="#000000" />
<rect x="60" y="98" width="3" height="1" fill="#000000" />
<rect x="69" y="98" width="1" height="1" fill="#4B692F" />
<rect x="77" y="98" width="1" height="1" fill="#4B692F" />
<rect x="85" y="98" width="1" height="1" fill="#4B692F" />
<rect x="93" y="98" width="1" height="1" fill="#4B692F" />
<rect x="101" y="98" width="1" height="1" fill="#4B692F" />
<rect x="109" y="98" width="1" height="1" fill="#4B692F" />
<rect x="117" y="98" width="1" height="1" fill="#4B692F" />
<rect x="123" y="98" width="1" height="2" fill="#000000" />
<rect x="41" y="99" width="1" height="3" fill="#000000" />
<rect x="54" y="99" width="1" height="3" fill="#000000" />
<rect x="63" y="99" width="60" height="1" fill="#000000" />
<rect x="42" y="101" width="1" height="3" fill="#000000" />
<rect x="53" y="101" width="1" height="3" fill="#000000" />
<rect x="43" y="103" width="1" height="3" fill="#000000" />
<rect x="52" y="103" width="1" height="3" fill="#000000" />
<rect x="44" y="105" width="8" height="1" fill="#000000" />
</svg>